<svg xmlns="http://www.w3.org/2000/svg" width="139.487" height="32.731" viewBox="0 0 139.487 32.731">
  <g id="Logo_ILS_header" transform="translate(-39.999 -6.175)">
    <g id="Logo_ILS" transform="translate(19046 4284.175)">
      <path id="Trazado_32" data-name="Trazado 32" d="M225.553,223.591a8.317,8.317,0,0,0-.031-1.359l.528-.054a8.74,8.74,0,0,0-.7-2.638l-.489.216a8.248,8.248,0,0,0-.8-1.433c-.021-.03-.045-.057-.066-.087l.43-.312a8.822,8.822,0,0,0-1.923-1.935l-.312.426a8.191,8.191,0,0,0-1.517-.876l.217-.487a8.8,8.8,0,0,0-2.619-.709h-.013l-.015.129v2.492a6.078,6.078,0,0,1,.76.16,6.206,6.206,0,0,1,4.492,6.3c-.007.115-.016.23-.029.346s-.029.231-.048.344A6.2,6.2,0,0,1,211.1,222.76c.006-.118.016-.237.029-.356s.03-.237.05-.353a6.164,6.164,0,0,1,5.173-5.081v-2.63a8.749,8.749,0,0,0-2.6.693l.214.484a8.25,8.25,0,0,0-1.516.876l-.313-.432a8.824,8.824,0,0,0-1.936,1.922l.431.316a8.2,8.2,0,0,0-.887,1.511l-.482-.216a8.8,8.8,0,0,0-.712,2.624v.009l.534.059-.044.4a8.26,8.26,0,0,0,.03,1.349l-.528.054a8.74,8.74,0,0,0,.7,2.639l.489-.216a8.268,8.268,0,0,0,.807,1.442c.019.027.041.052.06.079l-.43.311a8.812,8.812,0,0,0,1.921,1.937l.313-.425.005,0a8.246,8.246,0,0,0,1.511.874l-.218.486a8.793,8.793,0,0,0,2.628.714h0l.057-.524a8.318,8.318,0,0,0,1.032.05c.243,0,.482-.022.72-.046l.054.53a8.743,8.743,0,0,0,2.639-.7l-.213-.483a8.289,8.289,0,0,0,1.517-.875l.312.432a8.819,8.819,0,0,0,1.938-1.919l-.43-.318a8.2,8.2,0,0,0,.888-1.51l.482.217a8.8,8.8,0,0,0,.715-2.632l0-.018-.535-.059Z" transform="translate(-19206.748 -4484.574)" fill="#c16022"/>
      <path id="Trazado_33" data-name="Trazado 33" d="M208.544,225.356v6.226a16.6,16.6,0,0,0,2.068,0v-6.224q-.51.05-1.034.051c-.349,0-.694-.017-1.033-.051m13.432-20.919a16.331,16.331,0,0,0-2.068-1.964,16.566,16.566,0,0,0-1.7-1.193c-.121-.074-.243-.146-.365-.216a16.557,16.557,0,0,0-2.068-1.01,16.436,16.436,0,0,0-5.16-1.172v2.075a14.481,14.481,0,0,1,5.16,27.527v-2.333a12.408,12.408,0,0,0,6.2-10.261V214.9a12.394,12.394,0,0,0-11.364-11.873c-.341-.028-.686-.043-1.034-.043s-.693.015-1.033.043a12.4,12.4,0,0,0-11.364,11.86V215.9a12.431,12.431,0,0,0,6.2,10.248v2.333a14.475,14.475,0,0,1,5.16-27.528v-2.073a16.69,16.69,0,0,0-3.092.492,16.474,16.474,0,0,0-8.272,5.063,16.563,16.563,0,0,0,0,21.918,16.4,16.4,0,0,0,2.068,1.965,16.648,16.648,0,0,0,1.7,1.192q.181.111.364.217a16.641,16.641,0,0,0,2.068,1.009,16.408,16.408,0,0,0,2.068.683v-6.542a10.35,10.35,0,0,1-6.2-9.032c-.006-.15-.01-.3-.01-.453s0-.3.01-.453a10.285,10.285,0,0,1,2.068-5.765,10.313,10.313,0,0,1,7.228-4.072c.34-.033.685-.051,1.033-.051s.694.018,1.034.051a10.341,10.341,0,0,1,9.3,9.836q.01.225.01.453c0,.152,0,.3-.01.453a10.356,10.356,0,0,1-6.2,9.032v6.536a16.565,16.565,0,0,0,4.136-1.684,16.422,16.422,0,0,0,4.136-3.379,16.564,16.564,0,0,0,0-21.917M213.7,215.114a4.136,4.136,0,0,0-8.252,0v.566a4.136,4.136,0,0,0,8.252,0Zm-3.092,2.074a2.067,2.067,0,1,1,1.034-1.79,2.054,2.054,0,0,1-1.034,1.79" transform="translate(-19199.031 -4476.882)" fill="#c90045"/>
    </g>
    <g id="Grupo_219" data-name="Grupo 219" transform="translate(20929 3343.774)">
      <rect id="Rectángulo_42" data-name="Rectángulo 42" width="2.438" height="11.006" transform="translate(-20846 -3329.233)" fill="#e8e0ce"/>
      <path id="Trazado_95" data-name="Trazado 95" d="M14.432,46.922l-.157-3.459v-3.7h2.469V50.774H14.637L9.165,43.73l.094,3.616v3.428H6.774V39.768H8.882Z" transform="translate(-20847.885 -3369)" fill="#e8e0ce"/>
      <path id="Trazado_96" data-name="Trazado 96" d="M28.5,39.768a5.072,5.072,0,0,1,5.472,5.425c0,2.877-1.62,5.582-5.472,5.582H23.984V39.768ZM26.406,48.51H28.5c2.39,0,3.05-1.761,3.05-3.349a2.854,2.854,0,0,0-3.05-3.176H26.406Z" transform="translate(-20852.672 -3369.001)" fill="#e8e0ce"/>
      <rect id="Rectángulo_43" data-name="Rectángulo 43" width="2.437" height="11.006" transform="translate(-20816.846 -3329.233)" fill="#e8e0ce"/>
      <path id="Trazado_97" data-name="Trazado 97" d="M55.544,50.774h-8.38V39.768h8.16v2.248H49.569v2.123h5.425v2.154H49.569V48.51h5.975Z" transform="translate(-20859.119 -3369)" fill="#e8e0ce"/>
      <path id="Trazado_98" data-name="Trazado 98" d="M68.312,49.5H74.3v1.274H66.944V39.768h1.368Z" transform="translate(-20864.623 -3369.001)" fill="#e8e0ce"/>
      <path id="Trazado_99" data-name="Trazado 99" d="M79.557,39.767h7.736v1.258H80.909v3.443h6.117v1.274H80.909v3.726h6.636v1.305H79.557Z" transform="translate(-20868.131 -3369)" fill="#e8e0ce"/>
      <path id="Trazado_100" data-name="Trazado 100" d="M93.674,39.767l3.758,9.4,3.79-9.4h1.509L98.187,50.806H96.709l-4.56-11.038Z" transform="translate(-20871.633 -3369)" fill="#e8e0ce"/>
      <path id="Trazado_101" data-name="Trazado 101" d="M109.294,39.767h7.736v1.258h-6.384v3.443h6.117v1.274h-6.117v3.726h6.636v1.305h-7.988Z" transform="translate(-20876.402 -3369)" fill="#e8e0ce"/>
      <path id="Trazado_102" data-name="Trazado 102" d="M124.843,49.5h5.99v1.274h-7.358V39.768h1.368Z" transform="translate(-20880.348 -3369.001)" fill="#e8e0ce"/>
      <path id="Trazado_104" data-name="Trazado 104" d="M33.149,59.863c-.6,0-1.245.237-1.245.811,0,.515.589.663,1.286.778.947.149,1.88.339,1.88,1.407s-1.021,1.408-1.928,1.408a2.056,2.056,0,0,1-2-1.1l.487-.284a1.718,1.718,0,0,0,1.522.832c.575,0,1.339-.182,1.339-.879.007-.588-.656-.757-1.366-.865-.913-.142-1.8-.352-1.8-1.312-.014-.987.994-1.326,1.813-1.326a1.856,1.856,0,0,1,1.793.859l-.447.277a1.572,1.572,0,0,0-1.332-.608" transform="translate(-20877.141 -3374.444)" fill="#fff"/>
      <path id="Trazado_105" data-name="Trazado 105" d="M44.852,60v-.528h3.815V60H47.051V64.21h-.582V60Z" transform="translate(-20880.955 -3374.483)" fill="#fff"/>
      <path id="Trazado_106" data-name="Trazado 106" d="M62.641,59.482v2.841A1.834,1.834,0,0,1,60.721,64.3a1.856,1.856,0,0,1-1.942-1.975V59.482h.582v2.841a1.352,1.352,0,1,0,2.7-.007V59.475h.575Z" transform="translate(-20884.83 -3374.483)" fill="#fff"/>
      <path id="Trazado_107" data-name="Trazado 107" d="M72.669,59.466h1.725a2.239,2.239,0,0,1,2.381,2.321,2.268,2.268,0,0,1-2.381,2.421H72.669V59.466Zm3.517,2.313a1.686,1.686,0,0,0-1.792-1.745H73.257v3.585h1.137a1.717,1.717,0,0,0,1.792-1.84" transform="translate(-20888.693 -3374.48)" fill="#fff"/>
      <rect id="Rectángulo_44" data-name="Rectángulo 44" width="0.588" height="4.735" transform="translate(-20805.697 -3315.007)" fill="#fff"/>
      <path id="Trazado_108" data-name="Trazado 108" d="M100.676,61.825a2.405,2.405,0,1,1-2.394-2.462,2.315,2.315,0,0,1,2.394,2.462M98.282,59.9a1.91,1.91,0,1,0,1.806,1.921A1.774,1.774,0,0,0,98.282,59.9" transform="translate(-20895.146 -3374.451)" fill="#fff"/>
    </g>
  </g>
</svg>
