<svg xmlns="http://www.w3.org/2000/svg" viewBox="0 0 1600 1000" preserveAspectRatio="xMidYMid slice" aria-hidden="true" focusable="false"><defs><radialGradient id="gp0"><stop offset="0" stop-color="#fff" stop-opacity=".9"/><stop offset=".3" stop-color="#f6f1e8"/><stop offset="1" stop-color="#f6f1e8" stop-opacity="0"/></radialGradient><radialGradient id="gp1"><stop offset="0" stop-color="#fff" stop-opacity=".9"/><stop offset=".3" stop-color="#e0a85e"/><stop offset="1" stop-color="#e0a85e" stop-opacity="0"/></radialGradient><radialGradient id="gp2"><stop offset="0" stop-color="#fff" stop-opacity=".9"/><stop offset=".3" stop-color="#8d7cc0"/><stop offset="1" stop-color="#8d7cc0" stop-opacity="0"/></radialGradient><radialGradient id="gp3"><stop offset="0" stop-color="#fff" stop-opacity=".9"/><stop offset=".3" stop-color="#43b5a6"/><stop offset="1" stop-color="#43b5a6" stop-opacity="0"/></radialGradient><radialGradient id="gp4"><stop offset="0" stop-color="#fff" stop-opacity=".9"/><stop offset=".3" stop-color="#cf6a3c"/><stop offset="1" stop-color="#cf6a3c" stop-opacity="0"/></radialGradient><radialGradient id="gp5"><stop offset="0" stop-color="#fff" stop-opacity=".9"/><stop offset=".3" stop-color="#6fd3c4"/><stop offset="1" stop-color="#6fd3c4" stop-opacity="0"/></radialGradient></defs><g fill="none" stroke-width="1.1" stroke-linecap="round"><g stroke="#f6f1e8"><path d="M834 459Q773 458 719 430" opacity=".15"/><path d="M834 459Q820 386 775 328" opacity=".14"/><path d="M834 459Q825 500 799 532" opacity=".13"/><path d="M834 459Q871 456 903 437" opacity=".14"/><path d="M834 459Q810 477 797 504" opacity=".12"/><path d="M834 459Q867 463 893 481" opacity=".11"/><path d="M834 459Q859 435 871 403" opacity=".12"/><path d="M834 459Q867 458 896 471" opacity=".12"/><path d="M834 459Q830 452 822 448" opacity=".12"/><path d="M834 459Q829 435 835 411" opacity=".12"/><path d="M834 459Q847 455 856 446" opacity=".12"/><path d="M834 459Q864 436 900 429" opacity=".12"/><path d="M834 459Q846 479 865 492" opacity=".12"/><path d="M834 459Q842 465 845 475" opacity=".13"/><path d="M834 459Q858 442 871 416" opacity=".13"/><path d="M834 459Q861 450 889 454" opacity=".13"/></g><g stroke="#e0a85e"><path d="M719 430Q737 435 752 447" opacity=".12"/><path d="M719 430Q706 411 685 399" opacity=".12"/><path d="M719 430Q690 445 658 446" opacity=".13"/><path d="M685 399Q702 372 705 341" opacity=".12"/><path d="M719 430Q693 426 671 411" opacity=".10"/><path d="M719 430Q689 435 660 426" opacity=".09"/><path d="M660 426Q675 448 698 461" opacity=".09"/><path d="M660 426Q667 452 662 478" opacity=".09"/><path d="M660 426Q654 416 644 409" opacity=".10"/><path d="M660 426Q659 392 673 361" opacity=".09"/><path d="M660 426Q655 404 641 387" opacity=".10"/><path d="M660 426Q710 435 750 465" opacity=".09"/><path d="M660 426Q634 410 603 407" opacity=".10"/><path d="M660 426Q649 427 638 422" opacity=".10"/><path d="M660 426Q654 446 658 466" opacity=".09"/><path d="M660 426Q679 436 692 453" opacity=".09"/><path d="M752 447Q799 475 853 478" opacity=".08"/><path d="M752 447Q746 454 737 456" opacity=".08"/><path d="M752 447Q764 467 784 479" opacity=".08"/><path d="M752 447Q760 429 777 416" opacity=".08"/><path d="M752 447Q764 448 776 442" opacity=".08"/><path d="M685 399Q718 422 737 456" opacity=".08"/><path d="M658 446Q663 478 683 504" opacity=".09"/><path d="M698 461Q727 461 752 447" opacity=".08"/><path d="M698 461Q718 480 728 507" opacity=".08"/><path d="M662 478Q692 500 728 507" opacity=".08"/><path d="M692 453Q721 443 752 447" opacity=".08"/><path d="M692 453Q703 485 728 507" opacity=".08"/><path d="M658 466Q698 478 728 507" opacity=".08"/><path d="M644 409Q666 409 685 399" opacity=".09"/><path d="M644 409Q655 426 658 446" opacity=".10"/><path d="M638 422Q645 436 658 446" opacity=".10"/><path d="M638 422Q653 413 671 411" opacity=".10"/><path d="M673 361Q691 355 705 341" opacity=".09"/><path d="M673 361Q703 362 729 375" opacity=".09"/><path d="M641 387Q662 398 685 399" opacity=".09"/><path d="M750 465Q759 453 773 447" opacity=".08"/><path d="M750 465Q790 506 845 523" opacity=".08"/></g><g stroke="#8d7cc0"><path d="M775 328Q746 346 729 375" opacity=".11"/><path d="M775 328Q742 343 705 341" opacity=".12"/><path d="M729 375Q713 361 705 341" opacity=".11"/><path d="M775 328Q795 278 790 224" opacity=".08"/><path d="M790 224Q782 208 782 189" opacity=".08"/><path d="M790 224Q797 196 791 168" opacity=".08"/><path d="M790 224Q796 202 811 185" opacity=".08"/><path d="M790 224Q792 211 788 199" opacity=".08"/><path d="M790 224Q798 265 788 304" opacity=".08"/><path d="M790 224Q786 196 770 172" opacity=".08"/><path d="M790 224Q773 212 764 194" opacity=".08"/><path d="M790 224Q811 208 822 183" opacity=".08"/><path d="M790 224Q799 208 815 198" opacity=".08"/><path d="M790 224Q804 203 808 178" opacity=".08"/><path d="M790 224Q786 193 798 164" opacity=".08"/><path d="M790 224Q788 200 776 179" opacity=".08"/><path d="M790 224Q806 258 806 295" opacity=".08"/><path d="M790 224Q772 263 774 306" opacity=".08"/><path d="M729 375Q743 415 737 456" opacity=".08"/><path d="M729 375Q752 416 791 441" opacity=".07"/></g><g stroke="#43b5a6"><path d="M799 532Q766 511 728 507" opacity=".10"/><path d="M799 532Q775 492 773 447" opacity=".10"/><path d="M799 532Q817 484 812 432" opacity=".09"/><path d="M799 532Q807 531 815 535" opacity=".09"/><path d="M799 532Q790 507 771 490" opacity=".09"/><path d="M799 532Q770 535 743 524" opacity=".10"/><path d="M799 532Q782 529 766 534" opacity=".09"/><path d="M799 532Q782 526 771 513" opacity=".09"/><path d="M799 532Q772 526 747 533" opacity=".09"/><path d="M799 532Q772 538 745 531" opacity=".09"/><path d="M799 532Q823 533 845 523" opacity=".10"/><path d="M799 532Q830 515 865 515" opacity=".10"/><path d="M799 532Q776 528 754 534" opacity=".08"/><path d="M799 532Q809 543 813 557" opacity=".07"/><path d="M799 532Q792 554 796 578" opacity=".07"/><path d="M799 532Q821 502 854 485" opacity=".07"/><path d="M854 485Q867 485 879 478" opacity=".06"/><path d="M854 485Q861 499 861 515" opacity=".07"/><path d="M854 485Q854 481 853 478" opacity=".07"/><path d="M854 485Q885 474 918 479" opacity=".06"/><path d="M854 485Q828 455 791 441" opacity=".07"/><path d="M854 485Q832 498 806 500" opacity=".06"/><path d="M854 485Q869 494 887 495" opacity=".06"/><path d="M854 485Q859 470 871 460" opacity=".06"/><path d="M854 485Q880 480 901 464" opacity=".06"/><path d="M854 485Q879 484 903 495" opacity=".06"/><path d="M854 485Q857 461 850 438" opacity=".06"/><path d="M854 485Q877 473 904 473" opacity=".06"/><path d="M854 485Q878 468 892 442" opacity=".06"/><path d="M854 485Q838 484 825 475" opacity=".06"/><path d="M854 485Q886 476 911 453" opacity=".06"/><path d="M854 485Q868 464 891 452" opacity=".06"/><path d="M799 532Q757 505 708 500" opacity=".07"/><path d="M708 500Q718 503 724 510" opacity=".07"/><path d="M708 500Q695 499 683 504" opacity=".08"/><path d="M708 500Q681 511 652 510" opacity=".07"/><path d="M708 500Q676 501 648 517" opacity=".07"/><path d="M708 500Q718 475 737 456" opacity=".07"/><path d="M708 500Q676 490 644 496" opacity=".07"/><path d="M708 500Q676 495 649 476" opacity=".07"/><path d="M708 500Q684 489 658 490" opacity=".07"/><path d="M708 500Q681 490 661 469" opacity=".07"/><path d="M799 532Q790 501 769 477" opacity=".07"/><path d="M769 477Q755 477 743 471" opacity=".06"/><path d="M769 477Q783 457 788 433" opacity=".06"/><path d="M769 477Q768 458 776 442" opacity=".07"/><path d="M769 477Q752 487 742 504" opacity=".06"/><path d="M769 477Q750 467 738 450" opacity=".06"/><path d="M769 477Q776 480 784 479" opacity=".07"/><path d="M769 477Q771 464 779 453" opacity=".06"/><path d="M769 477Q767 462 759 450" opacity=".06"/><path d="M769 477Q767 476 766 475" opacity=".06"/><path d="M769 477Q767 455 755 436" opacity=".06"/><path d="M799 532Q779 572 744 598" opacity=".07"/><path d="M744 598Q735 624 739 651" opacity=".06"/><path d="M744 598Q732 617 712 628" opacity=".07"/><path d="M744 598Q737 617 739 637" opacity=".06"/><path d="M744 598Q720 615 690 619" opacity=".06"/><path d="M744 598Q720 622 710 654" opacity=".07"/><path d="M744 598Q741 627 726 652" opacity=".07"/><path d="M744 598Q714 610 693 633" opacity=".07"/><path d="M744 598Q727 626 698 643" opacity=".06"/><path d="M744 598Q755 579 756 558" opacity=".06"/><path d="M744 598Q761 600 775 610" opacity=".07"/><path d="M744 598Q732 589 716 586" opacity=".07"/><path d="M744 598Q756 602 765 611" opacity=".07"/><path d="M744 598Q731 608 724 622" opacity=".06"/><path d="M744 598Q754 582 770 573" opacity=".06"/><path d="M744 598Q722 602 704 616" opacity=".06"/><path d="M744 598Q737 626 719 647" opacity=".06"/><path d="M744 598Q732 586 716 580" opacity=".07"/><path d="M799 532Q815 553 819 579" opacity=".06"/><path d="M819 579Q812 596 813 614" opacity=".05"/><path d="M819 579Q816 584 810 587" opacity=".05"/><path d="M819 579Q832 590 848 594" opacity=".05"/><path d="M819 579Q823 594 819 608" opacity=".05"/><path d="M819 579Q826 581 833 580" opacity=".05"/><path d="M819 579Q834 598 838 621" opacity=".05"/><path d="M819 579Q828 595 844 605" opacity=".05"/><path d="M799 532Q795 485 813 442" opacity=".07"/><path d="M813 442Q823 414 820 385" opacity=".08"/><path d="M813 442Q820 410 842 385" opacity=".08"/><path d="M813 442Q820 418 816 392" opacity=".08"/><path d="M813 442Q823 405 848 376" opacity=".08"/><path d="M813 442Q798 425 777 416" opacity=".08"/><path d="M813 442Q813 407 829 375" opacity=".08"/><path d="M799 532Q829 552 848 583" opacity=".08"/><path d="M848 583Q865 615 895 635" opacity=".08"/><path d="M848 583Q870 605 879 635" opacity=".08"/><path d="M848 583Q870 609 902 622" opacity=".08"/><path d="M848 583Q823 560 812 529" opacity=".08"/><path d="M848 583Q858 579 865 571" opacity=".08"/><path d="M848 583Q860 573 875 570" opacity=".08"/><path d="M848 583Q865 582 880 573" opacity=".08"/><path d="M799 532Q800 579 780 622" opacity=".08"/><path d="M780 622Q782 642 794 660" opacity=".09"/><path d="M780 622Q786 650 779 678" opacity=".09"/><path d="M780 622Q761 639 752 662" opacity=".09"/><path d="M780 622Q773 653 753 677" opacity=".09"/><path d="M780 622Q776 654 788 684" opacity=".09"/><path d="M780 622Q780 643 770 662" opacity=".09"/><path d="M799 532Q796 592 822 646" opacity=".07"/><path d="M822 646Q827 673 820 700" opacity=".07"/><path d="M822 646Q809 670 809 696" opacity=".07"/><path d="M822 646Q840 670 846 700" opacity=".07"/><path d="M822 646Q827 668 841 685" opacity=".07"/><path d="M822 646Q846 665 859 694" opacity=".07"/><path d="M822 646Q811 680 817 714" opacity=".07"/><path d="M822 646Q829 674 823 701" opacity=".07"/><path d="M822 646Q824 683 843 714" opacity=".07"/><path d="M822 646Q840 674 845 708" opacity=".07"/><path d="M799 532Q837 568 888 583" opacity=".07"/><path d="M888 583Q904 596 912 615" opacity=".07"/><path d="M888 583Q905 596 926 599" opacity=".07"/><path d="M888 583Q912 601 925 627" opacity=".07"/><path d="M888 583Q891 559 884 536" opacity=".07"/><path d="M888 583Q854 584 824 570" opacity=".07"/><path d="M888 583Q897 612 918 635" opacity=".07"/><path d="M888 583Q915 580 942 589" opacity=".07"/><path d="M888 583Q918 593 949 588" opacity=".07"/><path d="M888 583Q919 595 941 620" opacity=".07"/><path d="M888 583Q913 603 944 610" opacity=".07"/><path d="M888 583Q918 598 938 626" opacity=".07"/><path d="M888 583Q918 601 952 603" opacity=".07"/><path d="M728 507Q734 504 742 504" opacity=".07"/><path d="M728 507Q768 550 824 570" opacity=".08"/><path d="M773 447Q757 376 774 306" opacity=".08"/><path d="M773 447Q782 493 812 529" opacity=".08"/><path d="M773 447Q781 442 791 441" opacity=".07"/><path d="M773 447Q797 377 788 304" opacity=".08"/><path d="M773 447Q756 456 737 456" opacity=".08"/><path d="M812 432Q825 363 806 295" opacity=".07"/><path d="M812 432Q832 431 850 438" opacity=".06"/><path d="M812 432Q800 430 788 433" opacity=".06"/><path d="M815 535Q828 502 853 478" opacity=".07"/><path d="M815 535Q783 539 756 558" opacity=".07"/><path d="M815 535Q797 559 770 573" opacity=".06"/><path d="M815 535Q841 530 861 515" opacity=".07"/><path d="M771 490Q750 506 724 510" opacity=".07"/><path d="M771 490Q787 499 806 500" opacity=".06"/><path d="M771 490Q750 477 737 456" opacity=".07"/><path d="M771 490Q799 489 825 475" opacity=".06"/><path d="M771 490Q776 483 784 479" opacity=".07"/><path d="M743 524Q748 489 737 456" opacity=".08"/><path d="M743 524Q737 558 716 586" opacity=".07"/><path d="M766 534Q748 517 724 510" opacity=".06"/><path d="M766 534Q782 512 806 500" opacity=".06"/><path d="M766 534Q758 545 756 558" opacity=".06"/><path d="M766 534Q773 553 770 573" opacity=".06"/><path d="M766 534Q758 516 742 504" opacity=".06"/><path d="M771 513Q772 474 791 441" opacity=".07"/><path d="M771 513Q758 533 756 558" opacity=".06"/><path d="M771 513Q755 512 742 504" opacity=".06"/><path d="M747 533Q738 519 724 510" opacity=".07"/><path d="M747 533Q754 544 756 558" opacity=".06"/><path d="M747 533Q748 518 742 504" opacity=".06"/><path d="M745 531Q732 494 737 456" opacity=".07"/><path d="M745 531Q747 546 756 558" opacity=".07"/><path d="M745 531Q736 559 716 580" opacity=".07"/><path d="M845 523Q849 549 865 571" opacity=".08"/><path d="M845 523Q865 543 875 570" opacity=".08"/><path d="M845 523Q856 552 880 573" opacity=".08"/><path d="M845 523Q809 509 784 479" opacity=".07"/><path d="M845 523Q854 521 861 515" opacity=".07"/><path d="M845 523Q866 525 884 536" opacity=".08"/><path d="M865 515Q863 514 861 515" opacity=".07"/><path d="M754 534Q722 510 683 504" opacity=".09"/><path d="M813 557Q823 513 853 478" opacity=".07"/><path d="M813 557Q782 579 765 611" opacity=".07"/><path d="M813 557Q800 588 775 610" opacity=".07"/></g><g stroke="#cf6a3c"><path d="M903 437Q941 426 970 398" opacity=".11"/><path d="M903 437Q873 454 838 455" opacity=".11"/><path d="M903 437Q903 449 909 459" opacity=".11"/><path d="M903 437Q927 439 947 451" opacity=".11"/><path d="M903 437Q915 450 921 467" opacity=".08"/><path d="M903 437Q905 441 909 443" opacity=".08"/><path d="M838 455Q848 465 853 478" opacity=".07"/><path d="M838 455Q788 444 737 456" opacity=".08"/><path d="M838 455Q805 456 776 442" opacity=".07"/><path d="M838 455Q851 501 884 536" opacity=".07"/><path d="M909 459Q883 475 853 478" opacity=".08"/><path d="M921 467Q886 464 853 478" opacity=".08"/><path d="M909 443Q885 467 853 478" opacity=".07"/></g><g stroke="#6fd3c4"><path d="M893 481Q864 496 845 523" opacity=".11"/><path d="M893 481Q883 501 865 515" opacity=".10"/><path d="M893 481Q904 472 909 459" opacity=".11"/><path d="M893 481Q917 460 947 451" opacity=".11"/><path d="M893 481Q909 477 921 467" opacity=".11"/><path d="M893 481Q897 460 909 443" opacity=".11"/><path d="M797 504Q772 514 754 534" opacity=".12"/></g></g><g><circle cx="799" cy="532" r="20" fill="url(#gp3)" opacity=".34"/><circle cx="838" cy="455" r="16.3" fill="url(#gp4)" opacity=".36"/><circle cx="773" cy="447" r="20.3" fill="url(#gp3)" opacity=".36"/><circle cx="845" cy="523" r="16.4" fill="url(#gp3)" opacity=".37"/><circle cx="909" cy="459" r="16.5" fill="url(#gp4)" opacity=".37"/><circle cx="728" cy="507" r="16.5" fill="url(#gp3)" opacity=".38"/><circle cx="752" cy="447" r="16.6" fill="url(#gp1)" opacity=".38"/><circle cx="729" cy="375" r="20.8" fill="url(#gp2)" opacity=".38"/><circle cx="893" cy="481" r="16.7" fill="url(#gp5)" opacity=".39"/><circle cx="903" cy="437" r="21" fill="url(#gp4)" opacity=".40"/><circle cx="775" cy="328" r="21.2" fill="url(#gp2)" opacity=".40"/><circle cx="947" cy="451" r="17" fill="url(#gp4)" opacity=".40"/><circle cx="705" cy="341" r="17.2" fill="url(#gp2)" opacity=".42"/><circle cx="834" cy="459" r="25.8" fill="url(#gp0)" opacity=".42"/><circle cx="685" cy="399" r="21.7" fill="url(#gp1)" opacity=".43"/><circle cx="797" cy="504" r="17.5" fill="url(#gp5)" opacity=".44"/><circle cx="719" cy="430" r="22" fill="url(#gp1)" opacity=".45"/><circle cx="871" cy="403" r="17.7" fill="url(#gp5)" opacity=".45"/><circle cx="896" cy="471" r="17.8" fill="url(#gp5)" opacity=".45"/></g><g fill="#43b5a6"><circle cx="833" cy="580" r="1.6" opacity=".75"/><circle cx="819" cy="608" r="1.6" opacity=".75"/><circle cx="810" cy="587" r="1.6" opacity=".75"/><circle cx="844" cy="605" r="1.6" opacity=".75"/><circle cx="848" cy="594" r="1.6" opacity=".77"/><circle cx="813" cy="614" r="1.6" opacity=".77"/><circle cx="766" cy="475" r="1.6" opacity=".77"/><circle cx="838" cy="621" r="1.6" opacity=".77"/><circle cx="779" cy="453" r="1.6" opacity=".77"/><circle cx="759" cy="450" r="1.6" opacity=".77"/><circle cx="743" cy="471" r="1.6" opacity=".77"/><circle cx="879" cy="478" r="1.7" opacity=".78"/><circle cx="755" cy="436" r="1.7" opacity=".78"/><circle cx="738" cy="450" r="1.7" opacity=".78"/><circle cx="887" cy="495" r="1.7" opacity=".79"/><circle cx="891" cy="452" r="1.7" opacity=".79"/><circle cx="871" cy="460" r="1.7" opacity=".79"/><circle cx="904" cy="473" r="1.7" opacity=".79"/><circle cx="819" cy="579" r="2.5" opacity=".79"/><circle cx="724" cy="622" r="1.7" opacity=".80"/><circle cx="903" cy="495" r="1.7" opacity=".80"/><circle cx="788" cy="433" r="1.7" opacity=".80"/><circle cx="911" cy="453" r="1.7" opacity=".80"/><circle cx="704" cy="616" r="1.7" opacity=".80"/><circle cx="892" cy="442" r="1.7" opacity=".80"/><circle cx="739" cy="637" r="1.7" opacity=".81"/><circle cx="850" cy="438" r="1.7" opacity=".81"/><circle cx="918" cy="479" r="1.7" opacity=".81"/><circle cx="806" cy="500" r="1.7" opacity=".81"/><circle cx="719" cy="647" r="1.7" opacity=".81"/><circle cx="825" cy="475" r="1.7" opacity=".81"/><circle cx="901" cy="464" r="1.7" opacity=".81"/><circle cx="769" cy="477" r="2.6" opacity=".81"/><circle cx="770" cy="573" r="1.7" opacity=".81"/><circle cx="926" cy="599" r="1.7" opacity=".81"/><circle cx="766" cy="534" r="2.6" opacity=".82"/><circle cx="698" cy="643" r="1.7" opacity=".82"/><circle cx="690" cy="619" r="1.7" opacity=".82"/><circle cx="912" cy="615" r="1.7" opacity=".82"/><circle cx="739" cy="651" r="1.7" opacity=".82"/><circle cx="854" cy="485" r="2.6" opacity=".82"/><circle cx="756" cy="558" r="1.7" opacity=".82"/><circle cx="942" cy="589" r="1.7" opacity=".82"/><circle cx="812" cy="432" r="2.6" opacity=".83"/><circle cx="742" cy="504" r="1.7" opacity=".83"/><circle cx="925" cy="627" r="1.7" opacity=".83"/><circle cx="747" cy="533" r="2.6" opacity=".83"/><circle cx="712" cy="628" r="1.7" opacity=".83"/><circle cx="744" cy="598" r="2.6" opacity=".83"/><circle cx="771" cy="513" r="2.6" opacity=".83"/><circle cx="944" cy="610" r="1.7" opacity=".83"/><circle cx="716" cy="580" r="1.7" opacity=".83"/><circle cx="724" cy="510" r="1.7" opacity=".83"/><circle cx="775" cy="610" r="1.7" opacity=".83"/><circle cx="815" cy="535" r="2.6" opacity=".83"/><circle cx="710" cy="654" r="1.7" opacity=".84"/><circle cx="949" cy="588" r="1.7" opacity=".84"/><circle cx="693" cy="633" r="1.8" opacity=".84"/><circle cx="765" cy="611" r="1.8" opacity=".84"/><circle cx="771" cy="490" r="2.6" opacity=".84"/><circle cx="938" cy="626" r="1.8" opacity=".84"/><circle cx="861" cy="515" r="1.8" opacity=".84"/><circle cx="823" cy="701" r="1.8" opacity=".84"/><circle cx="726" cy="652" r="1.8" opacity=".84"/><circle cx="658" cy="490" r="1.8" opacity=".84"/><circle cx="918" cy="635" r="1.8" opacity=".84"/><circle cx="888" cy="583" r="2.6" opacity=".84"/><circle cx="791" cy="441" r="1.8" opacity=".84"/><circle cx="841" cy="685" r="1.8" opacity=".85"/><circle cx="661" cy="469" r="1.8" opacity=".85"/><circle cx="813" cy="557" r="1.8" opacity=".85"/><circle cx="952" cy="603" r="1.8" opacity=".85"/><circle cx="776" cy="442" r="1.8" opacity=".85"/><circle cx="652" cy="510" r="1.8" opacity=".85"/><circle cx="845" cy="708" r="1.8" opacity=".85"/><circle cx="745" cy="531" r="2.7" opacity=".85"/><circle cx="716" cy="586" r="1.8" opacity=".85"/><circle cx="809" cy="696" r="1.8" opacity=".86"/><circle cx="784" cy="479" r="1.8" opacity=".86"/><circle cx="941" cy="620" r="1.8" opacity=".86"/><circle cx="799" cy="532" r="4.5" opacity=".86"/><circle cx="853" cy="478" r="1.8" opacity=".86"/><circle cx="822" cy="646" r="2.7" opacity=".86"/><circle cx="859" cy="694" r="1.8" opacity=".86"/><circle cx="649" cy="476" r="1.8" opacity=".86"/><circle cx="884" cy="536" r="1.8" opacity=".86"/><circle cx="708" cy="500" r="2.7" opacity=".86"/><circle cx="817" cy="714" r="1.8" opacity=".87"/><circle cx="648" cy="517" r="1.8" opacity=".87"/><circle cx="865" cy="515" r="2.7" opacity=".87"/><circle cx="843" cy="714" r="1.8" opacity=".87"/><circle cx="824" cy="570" r="1.8" opacity=".87"/><circle cx="743" cy="524" r="2.7" opacity=".87"/><circle cx="644" cy="496" r="1.8" opacity=".87"/><circle cx="796" cy="578" r="1.8" opacity=".87"/><circle cx="773" cy="447" r="4.5" opacity=".87"/><circle cx="842" cy="385" r="1.8" opacity=".87"/><circle cx="820" cy="700" r="1.8" opacity=".88"/><circle cx="737" cy="456" r="1.8" opacity=".88"/><circle cx="846" cy="700" r="1.8" opacity=".88"/><circle cx="813" cy="442" r="2.7" opacity=".88"/><circle cx="845" cy="523" r="3.6" opacity=".88"/><circle cx="820" cy="385" r="1.8" opacity=".89"/><circle cx="728" cy="507" r="3.7" opacity=".89"/><circle cx="848" cy="376" r="1.8" opacity=".89"/><circle cx="875" cy="570" r="1.8" opacity=".89"/><circle cx="848" cy="583" r="2.8" opacity=".89"/><circle cx="777" cy="416" r="1.9" opacity=".90"/><circle cx="812" cy="529" r="1.9" opacity=".90"/><circle cx="880" cy="573" r="1.9" opacity=".90"/><circle cx="865" cy="571" r="1.9" opacity=".91"/><circle cx="829" cy="375" r="1.9" opacity=".91"/><circle cx="780" cy="622" r="2.8" opacity=".91"/><circle cx="895" cy="635" r="1.9" opacity=".91"/><circle cx="754" cy="534" r="1.9" opacity=".91"/><circle cx="816" cy="392" r="1.9" opacity=".91"/><circle cx="683" cy="504" r="1.9" opacity=".92"/><circle cx="902" cy="622" r="1.9" opacity=".92"/><circle cx="879" cy="635" r="1.9" opacity=".92"/><circle cx="779" cy="678" r="1.9" opacity=".93"/><circle cx="753" cy="677" r="1.9" opacity=".93"/><circle cx="752" cy="662" r="1.9" opacity=".94"/><circle cx="794" cy="660" r="1.9" opacity=".94"/><circle cx="788" cy="684" r="1.9" opacity=".94"/><circle cx="770" cy="662" r="2" opacity=".95"/></g><g fill="#8d7cc0"><circle cx="806" cy="295" r="1.8" opacity=".85"/><circle cx="788" cy="199" r="1.8" opacity=".87"/><circle cx="774" cy="306" r="1.8" opacity=".88"/><circle cx="776" cy="179" r="1.8" opacity=".88"/><circle cx="815" cy="198" r="1.8" opacity=".88"/><circle cx="808" cy="178" r="1.8" opacity=".88"/><circle cx="788" cy="304" r="1.8" opacity=".88"/><circle cx="764" cy="194" r="1.8" opacity=".89"/><circle cx="790" cy="224" r="2.8" opacity=".89"/><circle cx="798" cy="164" r="1.8" opacity=".89"/><circle cx="822" cy="183" r="1.8" opacity=".89"/><circle cx="729" cy="375" r="4.6" opacity=".90"/><circle cx="770" cy="172" r="1.9" opacity=".90"/><circle cx="811" cy="185" r="1.9" opacity=".91"/><circle cx="791" cy="168" r="1.9" opacity=".91"/><circle cx="782" cy="189" r="1.9" opacity=".91"/><circle cx="775" cy="328" r="4.7" opacity=".91"/><circle cx="705" cy="341" r="3.8" opacity=".93"/></g><g fill="#cf6a3c"><circle cx="838" cy="455" r="3.6" opacity=".87"/><circle cx="909" cy="443" r="1.8" opacity=".88"/><circle cx="909" cy="459" r="3.7" opacity=".88"/><circle cx="921" cy="467" r="1.8" opacity=".89"/><circle cx="903" cy="437" r="4.7" opacity=".91"/><circle cx="947" cy="451" r="3.8" opacity=".91"/><circle cx="970" cy="398" r="2.9" opacity=".92"/></g><g fill="#e0a85e"><circle cx="752" cy="447" r="3.7" opacity=".90"/><circle cx="750" cy="465" r="1.9" opacity=".92"/><circle cx="692" cy="453" r="1.9" opacity=".92"/><circle cx="698" cy="461" r="1.9" opacity=".93"/><circle cx="658" cy="466" r="1.9" opacity=".93"/><circle cx="685" cy="399" r="4.8" opacity=".94"/><circle cx="673" cy="361" r="1.9" opacity=".94"/><circle cx="662" cy="478" r="1.9" opacity=".94"/><circle cx="719" cy="430" r="4.9" opacity=".95"/><circle cx="660" cy="426" r="3" opacity=".96"/><circle cx="641" cy="387" r="2" opacity=".96"/><circle cx="644" cy="409" r="2" opacity=".97"/><circle cx="658" cy="446" r="3" opacity=".98"/><circle cx="603" cy="407" r="2" opacity=".98"/><circle cx="638" cy="422" r="2" opacity=".99"/><circle cx="671" cy="411" r="2.1" opacity="1.00"/></g><g fill="#6fd3c4"><circle cx="893" cy="481" r="3.7" opacity=".90"/><circle cx="797" cy="504" r="3.9" opacity=".95"/><circle cx="871" cy="403" r="3.9" opacity=".95"/><circle cx="900" cy="429" r="3" opacity=".96"/><circle cx="896" cy="471" r="3.9" opacity=".96"/><circle cx="856" cy="446" r="3" opacity=".97"/><circle cx="865" cy="492" r="3" opacity=".97"/><circle cx="835" cy="411" r="3" opacity=".97"/><circle cx="822" cy="448" r="3" opacity=".97"/><circle cx="871" cy="416" r="3" opacity=".98"/><circle cx="889" cy="454" r="3" opacity=".98"/><circle cx="845" cy="475" r="3" opacity=".98"/></g><g fill="#f6f1e8"><circle cx="834" cy="459" r="5.7" opacity=".93"/></g></svg>