<svg xmlns="http://www.w3.org/2000/svg" viewBox="0 0 1600 1000" preserveAspectRatio="xMidYMid slice" aria-hidden="true" focusable="false"><defs><radialGradient id="gp0"><stop offset="0" stop-color="#fff" stop-opacity=".9"/><stop offset=".3" stop-color="#f6f1e8"/><stop offset="1" stop-color="#f6f1e8" stop-opacity="0"/></radialGradient><radialGradient id="gp1"><stop offset="0" stop-color="#fff" stop-opacity=".9"/><stop offset=".3" stop-color="#e0a85e"/><stop offset="1" stop-color="#e0a85e" stop-opacity="0"/></radialGradient><radialGradient id="gp2"><stop offset="0" stop-color="#fff" stop-opacity=".9"/><stop offset=".3" stop-color="#8d7cc0"/><stop offset="1" stop-color="#8d7cc0" stop-opacity="0"/></radialGradient><radialGradient id="gp3"><stop offset="0" stop-color="#fff" stop-opacity=".9"/><stop offset=".3" stop-color="#43b5a6"/><stop offset="1" stop-color="#43b5a6" stop-opacity="0"/></radialGradient><radialGradient id="gp4"><stop offset="0" stop-color="#fff" stop-opacity=".9"/><stop offset=".3" stop-color="#cf6a3c"/><stop offset="1" stop-color="#cf6a3c" stop-opacity="0"/></radialGradient><radialGradient id="gp5"><stop offset="0" stop-color="#fff" stop-opacity=".9"/><stop offset=".3" stop-color="#6fd3c4"/><stop offset="1" stop-color="#6fd3c4" stop-opacity="0"/></radialGradient></defs><g fill="none" stroke-width="1.1" stroke-linecap="round"><g stroke="#f6f1e8"><path d="M830 454Q776 428 739 381" opacity=".14"/><path d="M830 454Q796 484 780 527" opacity=".14"/><path d="M830 454Q820 479 800 497" opacity=".12"/><path d="M830 454Q849 477 877 488" opacity=".13"/><path d="M830 454Q812 441 801 421" opacity=".11"/><path d="M830 454Q856 473 887 479" opacity=".10"/><path d="M830 454Q859 433 894 427" opacity=".11"/><path d="M830 454Q860 431 875 397" opacity=".11"/><path d="M830 454Q840 458 847 467" opacity=".11"/><path d="M830 454Q830 432 819 413" opacity=".11"/><path d="M830 454Q849 422 880 402" opacity=".11"/><path d="M830 454Q860 459 888 451" opacity=".11"/><path d="M830 454Q830 416 847 383" opacity=".11"/><path d="M830 454Q846 453 859 445" opacity=".11"/><path d="M830 454Q829 440 833 428" opacity=".11"/><path d="M830 454Q846 425 847 393" opacity=".11"/></g><g stroke="#e0a85e"><path d="M739 381Q757 407 761 437" opacity=".11"/><path d="M739 381Q715 381 693 391" opacity=".11"/><path d="M739 381Q702 375 673 353" opacity=".11"/><path d="M739 381Q729 345 703 317" opacity=".09"/><path d="M739 381Q730 356 710 337" opacity=".08"/><path d="M710 337Q730 349 742 369" opacity=".08"/><path d="M710 337Q722 338 734 334" opacity=".08"/><path d="M710 337Q689 340 668 334" opacity=".08"/><path d="M710 337Q699 372 704 409" opacity=".09"/><path d="M710 337Q691 337 674 328" opacity=".08"/><path d="M710 337Q732 390 776 427" opacity=".08"/><path d="M710 337Q692 310 687 277" opacity=".08"/><path d="M710 337Q697 318 677 307" opacity=".08"/><path d="M710 337Q715 337 719 339" opacity=".08"/><path d="M710 337Q715 358 730 375" opacity=".08"/><path d="M761 437Q808 471 834 522" opacity=".07"/><path d="M761 437Q744 458 737 484" opacity=".08"/><path d="M761 437Q790 453 808 479" opacity=".07"/><path d="M761 437Q759 416 747 398" opacity=".07"/><path d="M761 437Q787 453 802 479" opacity=".07"/><path d="M693 391Q704 443 737 484" opacity=".08"/><path d="M673 353Q686 386 683 421" opacity=".08"/><path d="M742 369Q760 401 761 437" opacity=".08"/><path d="M742 369Q749 391 765 407" opacity=".07"/><path d="M734 334Q758 366 765 407" opacity=".07"/><path d="M730 375Q738 410 761 437" opacity=".08"/><path d="M730 375Q751 387 765 407" opacity=".07"/><path d="M719 339Q734 379 765 407" opacity=".07"/><path d="M668 334Q687 360 693 391" opacity=".08"/><path d="M668 334Q668 344 673 353" opacity=".08"/><path d="M677 307Q681 330 673 353" opacity=".09"/><path d="M677 307Q689 315 703 317" opacity=".09"/><path d="M704 409Q723 435 727 466" opacity=".09"/><path d="M704 409Q709 460 735 503" opacity=".09"/><path d="M674 328Q691 357 693 391" opacity=".08"/><path d="M776 427Q765 474 776 521" opacity=".08"/><path d="M776 427Q823 441 858 475" opacity=".07"/></g><g stroke="#8d7cc0"><path d="M780 527Q761 510 735 503" opacity=".12"/><path d="M780 527Q746 503 727 466" opacity=".12"/><path d="M780 527Q794 582 781 637" opacity=".09"/><path d="M781 637Q780 638 781 639" opacity=".10"/><path d="M781 637Q766 645 750 647" opacity=".10"/><path d="M781 637Q773 653 773 670" opacity=".10"/><path d="M781 637Q786 637 791 639" opacity=".10"/><path d="M781 637Q786 617 782 596" opacity=".09"/><path d="M781 637Q790 659 787 683" opacity=".10"/><path d="M781 637Q761 650 749 670" opacity=".10"/><path d="M781 637Q772 663 752 683" opacity=".10"/><path d="M781 637Q797 649 818 652" opacity=".10"/><path d="M781 637Q797 657 802 681" opacity=".10"/><path d="M781 637Q793 662 815 680" opacity=".10"/><path d="M781 637Q787 669 779 700" opacity=".10"/><path d="M781 637Q787 640 795 640" opacity=".09"/><path d="M781 637Q769 619 766 597" opacity=".09"/><path d="M735 503Q739 494 737 484" opacity=".08"/><path d="M735 503Q763 522 779 552" opacity=".08"/></g><g stroke="#43b5a6"><path d="M800 497Q794 448 765 407" opacity=".09"/><path d="M800 497Q791 512 776 521" opacity=".10"/><path d="M800 497Q792 541 804 585" opacity=".09"/><path d="M800 497Q806 515 803 534" opacity=".09"/><path d="M800 497Q783 500 768 511" opacity=".09"/><path d="M800 497Q769 500 741 490" opacity=".09"/><path d="M800 497Q780 503 764 518" opacity=".09"/><path d="M800 497Q788 513 769 522" opacity=".09"/><path d="M800 497Q778 490 754 494" opacity=".09"/><path d="M800 497Q772 514 738 517" opacity=".09"/><path d="M800 497Q832 493 858 475" opacity=".09"/><path d="M800 497Q832 493 862 503" opacity=".09"/><path d="M800 497Q771 477 754 445" opacity=".07"/><path d="M800 497Q798 511 802 525" opacity=".07"/><path d="M800 497Q806 483 817 472" opacity=".06"/><path d="M800 497Q811 538 840 570" opacity=".07"/><path d="M840 570Q868 596 881 632" opacity=".07"/><path d="M840 570Q852 554 857 535" opacity=".07"/><path d="M840 570Q831 546 834 522" opacity=".07"/><path d="M840 570Q869 592 905 599" opacity=".07"/><path d="M840 570Q807 568 779 552" opacity=".07"/><path d="M840 570Q816 557 790 556" opacity=".07"/><path d="M840 570Q862 586 874 611" opacity=".07"/><path d="M840 570Q839 602 854 632" opacity=".07"/><path d="M840 570Q867 586 885 613" opacity=".07"/><path d="M840 570Q862 600 895 618" opacity=".07"/><path d="M840 570Q839 594 828 615" opacity=".07"/><path d="M840 570Q865 597 900 610" opacity=".07"/><path d="M840 570Q855 603 854 641" opacity=".07"/><path d="M840 570Q821 565 803 569" opacity=".07"/><path d="M840 570Q860 596 865 628" opacity=".07"/><path d="M840 570Q852 607 879 635" opacity=".07"/><path d="M800 497Q751 500 707 481" opacity=".07"/><path d="M707 481Q713 492 724 499" opacity=".07"/><path d="M707 481Q688 454 683 421" opacity=".07"/><path d="M707 481Q680 466 649 466" opacity=".07"/><path d="M707 481Q679 493 648 491" opacity=".07"/><path d="M707 481Q721 486 737 484" opacity=".07"/><path d="M707 481Q675 484 646 472" opacity=".07"/><path d="M707 481Q677 482 651 496" opacity=".07"/><path d="M707 481Q672 480 641 463" opacity=".07"/><path d="M707 481Q673 483 645 501" opacity=".07"/><path d="M800 497Q815 506 825 521" opacity=".07"/><path d="M825 521Q833 547 852 566" opacity=".06"/><path d="M825 521Q831 552 822 584" opacity=".07"/><path d="M825 521Q818 497 802 479" opacity=".07"/><path d="M825 521Q795 506 774 480" opacity=".06"/><path d="M825 521Q823 539 829 556" opacity=".06"/><path d="M825 521Q811 502 808 479" opacity=".07"/><path d="M825 521Q820 551 830 580" opacity=".06"/><path d="M825 521Q852 533 871 557" opacity=".06"/><path d="M825 521Q838 535 856 542" opacity=".06"/><path d="M825 521Q845 546 853 578" opacity=".06"/><path d="M800 497Q766 509 740 535" opacity=".06"/><path d="M740 535Q743 557 735 577" opacity=".06"/><path d="M740 535Q735 531 730 529" opacity=".06"/><path d="M740 535Q745 544 746 555" opacity=".06"/><path d="M740 535Q722 553 714 577" opacity=".06"/><path d="M740 535Q730 542 717 544" opacity=".05"/><path d="M740 535Q717 530 695 536" opacity=".06"/><path d="M740 535Q720 552 694 558" opacity=".06"/><path d="M740 535Q725 525 706 523" opacity=".06"/><path d="M740 535Q743 531 747 530" opacity=".06"/><path d="M740 535Q753 544 769 546" opacity=".06"/><path d="M740 535Q721 529 707 515" opacity=".06"/><path d="M740 535Q752 535 763 529" opacity=".06"/><path d="M740 535Q738 551 729 564" opacity=".06"/><path d="M740 535Q749 543 761 547" opacity=".06"/><path d="M740 535Q730 557 711 573" opacity=".06"/><path d="M740 535Q717 539 699 552" opacity=".06"/><path d="M740 535Q725 541 709 541" opacity=".06"/><path d="M800 497Q824 518 856 526" opacity=".06"/><path d="M856 526Q860 534 861 544" opacity=".05"/><path d="M856 526Q859 546 871 562" opacity=".05"/><path d="M856 526Q864 524 873 526" opacity=".05"/><path d="M856 526Q871 545 894 556" opacity=".05"/><path d="M856 526Q880 525 902 537" opacity=".05"/><path d="M856 526Q875 530 895 524" opacity=".05"/><path d="M856 526Q872 534 884 548" opacity=".05"/><path d="M800 497Q792 453 765 417" opacity=".06"/><path d="M765 417Q753 402 748 382" opacity=".06"/><path d="M765 417Q772 393 767 369" opacity=".06"/><path d="M765 417Q743 405 730 385" opacity=".06"/><path d="M765 417Q770 388 761 359" opacity=".06"/><path d="M765 417Q754 409 747 398" opacity=".06"/><path d="M765 417Q758 388 738 365" opacity=".06"/><path d="M800 497Q845 511 891 504" opacity=".07"/><path d="M891 504Q922 508 949 526" opacity=".06"/><path d="M891 504Q920 510 949 502" opacity=".06"/><path d="M891 504Q926 498 959 508" opacity=".06"/><path d="M891 504Q874 514 863 530" opacity=".07"/><path d="M891 504Q895 490 905 479" opacity=".07"/><path d="M891 504Q904 502 914 495" opacity=".07"/><path d="M891 504Q900 489 916 479" opacity=".07"/><path d="M800 497Q760 540 744 596" opacity=".07"/><path d="M744 596Q749 627 739 657" opacity=".07"/><path d="M744 596Q729 623 728 654" opacity=".07"/><path d="M744 596Q739 624 721 646" opacity=".07"/><path d="M744 596Q715 606 694 628" opacity=".07"/><path d="M744 596Q730 627 704 647" opacity=".07"/><path d="M744 596Q720 616 707 645" opacity=".07"/><path d="M800 497Q803 478 813 462" opacity=".06"/><path d="M813 462Q820 466 829 466" opacity=".05"/><path d="M813 462Q801 456 793 446" opacity=".05"/><path d="M813 462Q816 445 810 430" opacity=".05"/><path d="M813 462Q810 465 806 466" opacity=".05"/><path d="M813 462Q830 450 839 432" opacity=".05"/><path d="M813 462Q829 452 847 450" opacity=".05"/><path d="M813 462Q812 451 806 443" opacity=".05"/><path d="M813 462Q813 440 822 421" opacity=".05"/><path d="M813 462Q824 454 829 444" opacity=".05"/><path d="M800 497Q825 448 868 416" opacity=".07"/><path d="M868 416Q886 404 895 385" opacity=".06"/><path d="M868 416Q888 403 912 400" opacity=".06"/><path d="M868 416Q881 394 882 369" opacity=".06"/><path d="M868 416Q872 426 871 437" opacity=".07"/><path d="M868 416Q851 394 826 382" opacity=".07"/><path d="M868 416Q880 396 899 385" opacity=".06"/><path d="M868 416Q898 416 924 402" opacity=".06"/><path d="M868 416Q868 387 881 361" opacity=".06"/><path d="M868 416Q892 394 903 364" opacity=".06"/><path d="M868 416Q892 390 926 378" opacity=".06"/><path d="M868 416Q894 391 906 357" opacity=".06"/><path d="M868 416Q892 391 925 381" opacity=".06"/><path d="M765 407Q761 445 774 480" opacity=".07"/><path d="M765 407Q793 387 826 382" opacity=".07"/><path d="M776 521Q762 558 766 597" opacity=".08"/><path d="M776 521Q821 515 863 530" opacity=".07"/><path d="M776 521Q774 537 779 552" opacity=".08"/><path d="M776 521Q788 558 782 596" opacity=".08"/><path d="M776 521Q761 498 737 484" opacity=".08"/><path d="M804 585Q806 614 795 640" opacity=".08"/><path d="M804 585Q812 603 828 615" opacity=".07"/><path d="M804 585Q813 582 822 584" opacity=".07"/><path d="M803 534Q820 532 834 522" opacity=".07"/><path d="M803 534Q775 539 747 530" opacity=".06"/><path d="M803 534Q780 535 761 547" opacity=".06"/><path d="M803 534Q830 528 857 535" opacity=".07"/><path d="M768 511Q747 500 724 499" opacity=".07"/><path d="M768 511Q785 531 790 556" opacity=".07"/><path d="M768 511Q756 494 737 484" opacity=".07"/><path d="M768 511Q792 536 803 569" opacity=".07"/><path d="M768 511Q792 500 808 479" opacity=".07"/><path d="M741 490Q738 487 737 484" opacity=".07"/><path d="M741 490Q721 498 707 515" opacity=".06"/><path d="M764 518Q742 514 724 499" opacity=".07"/><path d="M764 518Q773 540 790 556" opacity=".07"/><path d="M764 518Q757 526 747 530" opacity=".06"/><path d="M764 518Q759 532 761 547" opacity=".06"/><path d="M764 518Q765 498 774 480" opacity=".06"/><path d="M769 522Q771 538 779 552" opacity=".07"/><path d="M769 522Q759 529 747 530" opacity=".06"/><path d="M769 522Q777 502 774 480" opacity=".07"/><path d="M754 494Q740 500 724 499" opacity=".07"/><path d="M754 494Q747 511 747 530" opacity=".06"/><path d="M754 494Q763 485 774 480" opacity=".06"/><path d="M738 517Q742 500 737 484" opacity=".07"/><path d="M738 517Q744 522 747 530" opacity=".06"/><path d="M738 517Q721 525 709 541" opacity=".06"/><path d="M858 475Q882 471 905 479" opacity=".07"/><path d="M858 475Q884 492 914 495" opacity=".07"/><path d="M858 475Q887 470 916 479" opacity=".07"/><path d="M858 475Q833 471 808 479" opacity=".07"/><path d="M858 475Q865 505 857 535" opacity=".07"/><path d="M858 475Q869 458 871 437" opacity=".07"/><path d="M862 503Q863 520 857 535" opacity=".07"/><path d="M754 445Q715 442 683 421" opacity=".07"/><path d="M802 525Q818 527 834 522" opacity=".07"/><path d="M802 525Q783 532 763 529" opacity=".06"/><path d="M802 525Q783 531 769 546" opacity=".06"/></g><g stroke="#cf6a3c"><path d="M877 488Q850 481 822 486" opacity=".10"/><path d="M877 488Q891 496 900 509" opacity=".11"/><path d="M877 488Q905 492 931 482" opacity=".11"/><path d="M877 488Q876 499 879 509" opacity=".08"/><path d="M877 488Q884 503 884 520" opacity=".08"/><path d="M822 486Q824 506 834 522" opacity=".08"/><path d="M822 486Q779 495 737 484" opacity=".08"/><path d="M822 486Q813 480 802 479" opacity=".07"/><path d="M822 486Q840 456 871 437" opacity=".07"/><path d="M900 509Q865 507 834 522" opacity=".08"/><path d="M879 509Q858 521 834 522" opacity=".08"/><path d="M884 520Q859 515 834 522" opacity=".08"/></g><g stroke="#6fd3c4"><path d="M887 479Q872 481 858 475" opacity=".10"/><path d="M887 479Q872 488 862 503" opacity=".10"/><path d="M887 479Q897 492 900 509" opacity=".10"/><path d="M887 479Q909 486 931 482" opacity=".11"/><path d="M887 479Q887 495 879 509" opacity=".10"/><path d="M887 479Q881 499 884 520" opacity=".10"/><path d="M801 421Q780 438 754 445" opacity=".10"/></g></g><g><circle cx="800" cy="497" r="19.8" fill="url(#gp3)" opacity=".32"/><circle cx="858" cy="475" r="16.1" fill="url(#gp3)" opacity=".33"/><circle cx="765" cy="407" r="16.2" fill="url(#gp3)" opacity=".33"/><circle cx="761" cy="437" r="16.7" fill="url(#gp1)" opacity=".36"/><circle cx="822" cy="486" r="16.8" fill="url(#gp4)" opacity=".36"/><circle cx="887" cy="479" r="16.9" fill="url(#gp5)" opacity=".37"/><circle cx="900" cy="509" r="17" fill="url(#gp4)" opacity=".37"/><circle cx="801" cy="421" r="17" fill="url(#gp5)" opacity=".37"/><circle cx="830" cy="454" r="25.8" fill="url(#gp0)" opacity=".38"/><circle cx="877" cy="488" r="21.6" fill="url(#gp4)" opacity=".39"/><circle cx="931" cy="482" r="17.3" fill="url(#gp4)" opacity=".39"/><circle cx="693" cy="391" r="17.4" fill="url(#gp1)" opacity=".39"/><circle cx="875" cy="397" r="17.4" fill="url(#gp5)" opacity=".39"/><circle cx="739" cy="381" r="21.8" fill="url(#gp1)" opacity=".39"/><circle cx="735" cy="503" r="17.7" fill="url(#gp2)" opacity=".40"/><circle cx="894" cy="427" r="17.7" fill="url(#gp5)" opacity=".40"/><circle cx="780" cy="527" r="23.1" fill="url(#gp2)" opacity=".43"/><circle cx="727" cy="466" r="18.9" fill="url(#gp2)" opacity=".45"/></g><g fill="#43b5a6"><circle cx="806" cy="443" r="1.6" opacity=".75"/><circle cx="829" cy="444" r="1.6" opacity=".75"/><circle cx="806" cy="466" r="1.6" opacity=".76"/><circle cx="829" cy="466" r="1.6" opacity=".76"/><circle cx="822" cy="421" r="1.6" opacity=".76"/><circle cx="847" cy="450" r="1.6" opacity=".76"/><circle cx="884" cy="548" r="1.6" opacity=".76"/><circle cx="793" cy="446" r="1.6" opacity=".76"/><circle cx="861" cy="544" r="1.6" opacity=".76"/><circle cx="873" cy="526" r="1.6" opacity=".76"/><circle cx="839" cy="432" r="1.6" opacity=".77"/><circle cx="895" cy="524" r="1.6" opacity=".77"/><circle cx="810" cy="430" r="1.6" opacity=".77"/><circle cx="871" cy="562" r="1.6" opacity=".77"/><circle cx="717" cy="544" r="1.6" opacity=".77"/><circle cx="729" cy="564" r="1.6" opacity=".77"/><circle cx="746" cy="555" r="1.6" opacity=".77"/><circle cx="894" cy="556" r="1.6" opacity=".77"/><circle cx="730" cy="529" r="1.6" opacity=".77"/><circle cx="902" cy="537" r="1.6" opacity=".77"/><circle cx="699" cy="552" r="1.6" opacity=".78"/><circle cx="706" cy="523" r="1.6" opacity=".78"/><circle cx="711" cy="573" r="1.6" opacity=".78"/><circle cx="735" cy="577" r="1.6" opacity=".78"/><circle cx="813" cy="462" r="2.5" opacity=".78"/><circle cx="695" cy="536" r="1.6" opacity=".79"/><circle cx="856" cy="526" r="2.5" opacity=".79"/><circle cx="694" cy="558" r="1.7" opacity=".79"/><circle cx="714" cy="577" r="1.7" opacity=".79"/><circle cx="748" cy="382" r="1.7" opacity=".79"/><circle cx="763" cy="529" r="1.7" opacity=".79"/><circle cx="769" cy="546" r="1.7" opacity=".80"/><circle cx="767" cy="369" r="1.7" opacity=".80"/><circle cx="730" cy="385" r="1.7" opacity=".80"/><circle cx="740" cy="535" r="2.5" opacity=".80"/><circle cx="895" cy="385" r="1.7" opacity=".80"/><circle cx="829" cy="556" r="1.7" opacity=".80"/><circle cx="912" cy="400" r="1.7" opacity=".80"/><circle cx="852" cy="566" r="1.7" opacity=".80"/><circle cx="738" cy="365" r="1.7" opacity=".81"/><circle cx="856" cy="542" r="1.7" opacity=".81"/><circle cx="761" cy="359" r="1.7" opacity=".81"/><circle cx="882" cy="369" r="1.7" opacity=".81"/><circle cx="761" cy="547" r="1.7" opacity=".81"/><circle cx="707" cy="515" r="1.7" opacity=".81"/><circle cx="830" cy="580" r="1.7" opacity=".81"/><circle cx="709" cy="541" r="1.7" opacity=".81"/><circle cx="926" cy="378" r="1.7" opacity=".81"/><circle cx="871" cy="557" r="1.7" opacity=".81"/><circle cx="817" cy="472" r="1.7" opacity=".81"/><circle cx="949" cy="502" r="1.7" opacity=".81"/><circle cx="765" cy="417" r="2.6" opacity=".82"/><circle cx="906" cy="357" r="1.7" opacity=".82"/><circle cx="853" cy="578" r="1.7" opacity=".82"/><circle cx="924" cy="402" r="1.7" opacity=".82"/><circle cx="747" cy="530" r="1.7" opacity=".82"/><circle cx="899" cy="385" r="1.7" opacity=".82"/><circle cx="881" cy="361" r="1.7" opacity=".82"/><circle cx="949" cy="526" r="1.7" opacity=".82"/><circle cx="754" cy="494" r="2.6" opacity=".82"/><circle cx="802" cy="525" r="1.7" opacity=".82"/><circle cx="764" cy="518" r="2.6" opacity=".82"/><circle cx="868" cy="416" r="2.6" opacity=".82"/><circle cx="721" cy="646" r="1.7" opacity=".82"/><circle cx="825" cy="521" r="2.6" opacity=".83"/><circle cx="959" cy="508" r="1.7" opacity=".83"/><circle cx="774" cy="480" r="1.7" opacity=".83"/><circle cx="891" cy="504" r="2.6" opacity=".83"/><circle cx="925" cy="381" r="1.7" opacity=".83"/><circle cx="903" cy="364" r="1.7" opacity=".83"/><circle cx="905" cy="479" r="1.7" opacity=".83"/><circle cx="739" cy="657" r="1.8" opacity=".83"/><circle cx="704" cy="647" r="1.8" opacity=".83"/><circle cx="826" cy="382" r="1.8" opacity=".83"/><circle cx="744" cy="596" r="2.6" opacity=".84"/><circle cx="800" cy="497" r="4.4" opacity=".84"/><circle cx="803" cy="534" r="2.6" opacity=".84"/><circle cx="724" cy="499" r="1.8" opacity=".84"/><circle cx="914" cy="495" r="1.8" opacity=".84"/><circle cx="769" cy="522" r="2.6" opacity=".84"/><circle cx="694" cy="628" r="1.8" opacity=".84"/><circle cx="916" cy="479" r="1.8" opacity=".84"/><circle cx="738" cy="517" r="2.7" opacity=".84"/><circle cx="822" cy="584" r="1.8" opacity=".84"/><circle cx="747" cy="398" r="1.8" opacity=".84"/><circle cx="728" cy="654" r="1.8" opacity=".84"/><circle cx="649" cy="466" r="1.8" opacity=".84"/><circle cx="741" cy="490" r="2.7" opacity=".85"/><circle cx="790" cy="556" r="1.8" opacity=".85"/><circle cx="707" cy="645" r="1.8" opacity=".85"/><circle cx="857" cy="535" r="1.8" opacity=".85"/><circle cx="871" cy="437" r="1.8" opacity=".85"/><circle cx="648" cy="491" r="1.8" opacity=".85"/><circle cx="858" cy="475" r="3.6" opacity=".85"/><circle cx="808" cy="479" r="1.8" opacity=".85"/><circle cx="881" cy="632" r="1.8" opacity=".85"/><circle cx="874" cy="611" r="1.8" opacity=".85"/><circle cx="765" cy="407" r="3.6" opacity=".85"/><circle cx="900" cy="610" r="1.8" opacity=".85"/><circle cx="862" cy="503" r="2.7" opacity=".85"/><circle cx="768" cy="511" r="2.7" opacity=".85"/><circle cx="854" cy="632" r="1.8" opacity=".85"/><circle cx="707" cy="481" r="2.7" opacity=".85"/><circle cx="641" cy="463" r="1.8" opacity=".85"/><circle cx="840" cy="570" r="2.7" opacity=".86"/><circle cx="863" cy="530" r="1.8" opacity=".86"/><circle cx="645" cy="501" r="1.8" opacity=".86"/><circle cx="754" cy="445" r="1.8" opacity=".86"/><circle cx="803" cy="569" r="1.8" opacity=".86"/><circle cx="802" cy="479" r="1.8" opacity=".86"/><circle cx="905" cy="599" r="1.8" opacity=".86"/><circle cx="879" cy="635" r="1.8" opacity=".86"/><circle cx="646" cy="472" r="1.8" opacity=".86"/><circle cx="854" cy="641" r="1.8" opacity=".87"/><circle cx="895" cy="618" r="1.8" opacity=".87"/><circle cx="834" cy="522" r="1.8" opacity=".87"/><circle cx="804" cy="585" r="2.8" opacity=".87"/><circle cx="651" cy="496" r="1.8" opacity=".87"/><circle cx="828" cy="615" r="1.8" opacity=".87"/><circle cx="737" cy="484" r="1.9" opacity=".87"/><circle cx="885" cy="613" r="1.9" opacity=".88"/><circle cx="865" cy="628" r="1.9" opacity=".88"/><circle cx="779" cy="552" r="1.9" opacity=".88"/><circle cx="683" cy="421" r="1.9" opacity=".88"/><circle cx="776" cy="521" r="2.8" opacity=".88"/></g><g fill="#e0a85e"><circle cx="761" cy="437" r="3.7" opacity=".87"/><circle cx="719" cy="339" r="1.9" opacity=".88"/><circle cx="730" cy="375" r="1.9" opacity=".88"/><circle cx="742" cy="369" r="1.9" opacity=".88"/><circle cx="734" cy="334" r="1.9" opacity=".88"/><circle cx="776" cy="427" r="1.9" opacity=".88"/><circle cx="693" cy="391" r="3.9" opacity=".90"/><circle cx="710" cy="337" r="2.9" opacity=".90"/><circle cx="739" cy="381" r="4.9" opacity=".90"/><circle cx="674" cy="328" r="1.9" opacity=".91"/><circle cx="673" cy="353" r="2.9" opacity=".91"/><circle cx="687" cy="277" r="2" opacity=".91"/><circle cx="668" cy="334" r="2" opacity=".91"/><circle cx="677" cy="307" r="2" opacity=".92"/><circle cx="703" cy="317" r="2" opacity=".93"/><circle cx="704" cy="409" r="2" opacity=".93"/></g><g fill="#cf6a3c"><circle cx="822" cy="486" r="3.7" opacity=".88"/><circle cx="879" cy="509" r="1.9" opacity=".89"/><circle cx="900" cy="509" r="3.8" opacity=".89"/><circle cx="884" cy="520" r="1.9" opacity=".89"/><circle cx="877" cy="488" r="4.8" opacity=".90"/><circle cx="931" cy="482" r="3.8" opacity=".90"/></g><g fill="#6fd3c4"><circle cx="887" cy="479" r="3.7" opacity=".88"/><circle cx="801" cy="421" r="3.8" opacity=".89"/><circle cx="875" cy="397" r="3.9" opacity=".90"/><circle cx="847" cy="383" r="2.9" opacity=".91"/><circle cx="894" cy="427" r="3.9" opacity=".91"/><circle cx="819" cy="413" r="3" opacity=".92"/><circle cx="847" cy="467" r="3" opacity=".92"/><circle cx="880" cy="402" r="3" opacity=".92"/><circle cx="847" cy="393" r="3" opacity=".92"/><circle cx="888" cy="451" r="3" opacity=".92"/><circle cx="833" cy="428" r="3" opacity=".93"/><circle cx="859" cy="445" r="3" opacity=".93"/></g><g fill="#f6f1e8"><circle cx="830" cy="454" r="5.7" opacity=".89"/></g><g fill="#8d7cc0"><circle cx="735" cy="503" r="3.9" opacity=".91"/><circle cx="795" cy="640" r="2" opacity=".93"/><circle cx="766" cy="597" r="2" opacity=".94"/><circle cx="782" cy="596" r="2" opacity=".94"/><circle cx="780" cy="527" r="5.1" opacity=".94"/><circle cx="727" cy="466" r="4.2" opacity=".96"/><circle cx="781" cy="637" r="3.2" opacity=".97"/><circle cx="787" cy="683" r="2.2" opacity=".98"/><circle cx="749" cy="670" r="2.2" opacity=".98"/><circle cx="815" cy="680" r="2.2" opacity=".99"/><circle cx="779" cy="700" r="2.2" opacity=".99"/><circle cx="781" cy="639" r="2.2" opacity=".99"/><circle cx="818" cy="652" r="2.2" opacity=".99"/><circle cx="752" cy="683" r="2.2" opacity=".99"/><circle cx="750" cy="647" r="2.2" opacity=".99"/><circle cx="802" cy="681" r="2.3" opacity="1.00"/><circle cx="791" cy="639" r="2.3" opacity="1.00"/><circle cx="773" cy="670" r="2.3" opacity="1.00"/></g></svg>